# xmcd
#
# Track frame offsets: 
#        150
#        34669
#        50960
#        79739
#        92625
#        130073
#        152229
#
# Disc length: 2453 seconds
#
# Revision: 2
# Processed by: cddbd v1.5.2PL0 Copyright (c) Steve Scherf et al.
# Submitted via: ExactAudioCopy v0.99pb5
#
DISCID=55099307
DTITLE=Wayne Gorbea - Sigan Bailando
DYEAR=1986
DGENRE=Salsa
TTITLE0=Sigan bailando
TTITLE1=Pensando en ti
TTITLE2=Sigo pa 'lante
TTITLE3=Bin ban bon
TTITLE4=Ponte linda
TTITLE5=Lo que dice justi
TTITLE6=Llévatelo todo
EXTD=YEAR: 1986
EXTT0=
EXTT1=
EXTT2=
EXTT3=
EXTT4=
EXTT5=
EXTT6=
PLAYORDER=
